M48
;Layer_Color=9474304
;FILE_FORMAT=4:4
METRIC,LZ
;TYPE=PLATED
T1F00S00C0.3000
%
T01
X01203027Y00649422
X01218605
X01234184
X01249763
X01265341
X0128092
X01296499
X01312077
X01327656
X01343235
X01358813
X01374392
X01389971
X01405549
X01421128
X01436706
X01442464Y00685744
X01426885
X01411306
X01395728
X01380149
X0136457
X01348992
X01333413
X01317835
X01302256
X01286677
X01271099
X0125552
X01239941
X01224363
X01208784
X01193206
Y00706176
X01208784
X01224363
X01239941
X0125552
X01271099
X01286677
X01302256
X01317835
X01333413
X01348992
X0136457
X01380149
X01395728
X01411306
X01426885
X01442464
X01436706Y00738322
X01421128
X01405549
X01389971
X01374392
X01358813
X01343235
X01327656
X01312077
X01296499
X0128092
X01265341
X01249763
X01234184
X01218605
X01203027
X01187448
X0117187
X01156291
X01140712
X01125134
X01109555
X01093977
X01078398
X01062819
X01047241
X01031662
X01016083
X01000505
X00984926
X00969347
X00953769
X0093819
X00922611
X00907033
X00891454
X0087503Y0073914
X0085979Y007493
X00842602Y0075026
X00827023
X00811444
X00795866
X0080374Y00706176
X00819318
X00834897
X00850476
X00866054
X00881633
X00897212
X0091279
X00928369
X00943947
X00959526
X00975105
X00990683
X01006262
X01021841
X01037419
X01052998
X01068577
X01084155
X01099734
X01115312
X01130891
X0114647
X01162048
X01177627
Y00685744
X01162048
X0114647
X01130891
X01115312
X01099734
X01084155
X01068577
X01052998
X01037419
X01021841
X01006262
X00990683
X00975105
X00959526
X00943947
X00928369
X0091279
X00897212
X00881633
X00866054
X00850476
X00834897
X00819318
X0080374
X00811444Y00637484
X00795866
X00827023
X00842602
X0085852Y0063754
X0087503Y0064897
X00891454Y00649422
X00907033
X00922611
X0093819
X00953769
X00969347
X00984926
X01000505
X01016083
X01031662
X01047241
X01062819
X01078398
X01093977
X01109555
X01125134
X01140712
X01156291
X0117187
X01187448
X00780287Y00637484
X00764709
X0074913
X00733551
X00717973
X00702394
X00686815
X00671237
X00655658
X00640079
X00624501
X00608922
X00593344
X0065532Y006604
Y0067564
X00663532Y00685744
X00679111
X00694689
X00710268
X00725847
X00741425
X00757004
X00772582
X00788161
Y00706176
X00772582
X00757004
X00741425
X00725847
X00710268
X00694689
X00679111
X00663532
X0065532Y0072136
Y007366
X00655658Y0075026
X00671237
X00686815
X00702394
X00717973
X00733551
X0074913
X00764709
X00780287
X00640079
X00624501
X00608922
X00593344
M30
