M48
;Layer_Color=9474304
;FILE_FORMAT=4:4
METRIC,LZ
;TYPE=PLATED
T1F00S00C0.3000
;TYPE=NON_PLATED
T2F00S00C7.0000
%
T01
X01193206Y0078226
X01200995
X01208785
X01216574
X01224363
X01232153
X01239942
X01247731
X01255521
X0126331
X01271099
X01278888
X01286678
X01294467
X01302256
X01310046
X01317835
X01325624
X01333414
X01341203
X01348992
X01356782
X01364571
X0137236
X0138015
X01387939
X01395728
X01403518
X01411307
X01419096
X01426886
X01434675
X01442464
X01450253
X01179322Y00785816
X01174242Y00790642
X00569222Y00792942
X00562864Y00789118
X00556006Y00786324
X00548937Y00784206
X00541633Y00782478
X00533908Y0078226
X00526034Y00783022
X00518668Y007848
X00511556Y0078734
X00504952Y0079115
X00507746Y0080893
X00513842Y00804358
X00520446Y00800802
X00527558Y00798262
X00534924Y00797246
X00542544Y00797754
X0054991Y00799532
X00556677Y00802553
X0056266Y00807125
X00572008Y00818836
X00575564Y00833568
Y00840934
X00574548Y008483
X00572262Y00855412
X00568706Y00861762
X00558038Y00872176
X00551434Y00875986
X00544322Y00878272
X00536702Y0087878
X00529082Y00878018
X00521462Y0087624
X00514604Y00872938
X00508762Y00868366
X00499618Y00856682
X00482092Y00856936
X00484886Y00864048
X00488696Y00870906
X0049911Y00881828
X00511556Y00889956
X00518668Y00892496
X00526034Y00894274
X00533908Y00895036
X00541633Y00894819
X00548937Y0089309
X00556006Y00890972
X00562864Y00888178
X00569222Y00884354
X00576072Y0088005
X00591312Y00883098
X00599101
X00606891
X0061468
X00622469
X00630259
X00638048
X00645837
X00653626
X00661416
X00669205
X00676994
X00684784
X00692573
X00700362
X00708152
X00715941
X0072373
X0073152
X00739309
X00747098
X00754888
X00762677
X00770466
X00778256
X00786045
X00788077Y00846776
X00780288
X00772498
X00764709
X0075692
X0074913
X00741341
X00733552
X00725762
X00717973
X00710184
X00702394
X00694605
X00686816
X00679026
X00671237
X00663448
X00655658
X00647869
X0064008
X00632291
X00624501
X00616712
X00608923
X00601133
X00593344
X00591566Y00854142
X00589026Y00861
X0058547Y00867858
X0058482Y00829966
X00591566Y00823154
X00589026Y00816296
X0058547Y00809438
X00583523Y00794198
X00591312
X00599101
X00606891
X0061468
X00622469
X00630259
X00638048
X00645837
X00653626
X00661416
X00669205
X00676994
X00684784
X00692573
X00700362
X00708152
X00715941
X0072373
X0073152
X00739309
X00747098
X00754888
X00762677
X00770466
X00778256
X00786045
X00788077Y0083052
X00780288
X00772498
X00764709
X0075692
X0074913
X00741341
X00733552
X00725762
X00717973
X00710184
X00702394
X00694605
X00686816
X00679026
X00671237
X00663448
X00655658
X00647869
X0064008
X00632291
X00624501
X00616712
X00608923
X00601133
X00576072Y00797246
X00493776Y00800802
X00484886Y00813248
X00482092Y0082036
X0049911Y00820868
X00795866Y0083052
X00803655
X00811445
X00819234
X00827023
X00834813
X00842602
X00850391
X00858181
X0086597
X00873759
X00881549
X00889338
X00897127
X00904917
X00912706
X00920495
X00928285
X00936074
X00943863
X00951653
X00959442
X00967231
X00975021
X0098281
X00990599
X00998389
X01006178
X01013967
X01021756
X01029546
X01037335
X01045124
X01052914
X01060703
X01068492
X01076282
X01084071
X0109186
X0109965
X01107439
X01115228
X01123018
X01130807
X01138596
X01146385
X01154175
X01161964
X01169753
X01177543
X01185332
Y00846776
X01177543
X01169753
X01161964
X01154175
X01146385
X01138596
X01130807
X01123018
X01115228
X01107439
X0109965
X0109186
X01084071
X01076282
X01068492
X01060703
X01052914
X01045124
X01037335
X01029546
X01021756
X01013967
X01006178
X00998389
X00990599
X0098281
X00975021
X00967231
X00959442
X00951653
X00943863
X00936074
X00928285
X00920495
X00912706
X00904917
X00897127
X00889338
X00881549
X00873759
X0086597
X00858181
X00850391
X00842602
X00834813
X00827023
X00819234
X00811445
X00803655
X00795866
X00793834Y00883098
X00801624
X00809413
X00817202
X00824992
X00832781
X0084057
X00848359
X00856149
X00863938
X00871727
X00879517
X00887306
X00895095
X00902885
X00910674
X00918463
X00926253
X00934042
X00941831
X00949621
X0095741
X00965199
X00972989
X00980778
X00988567
X00996357
X01004146
X01011935
X01019724
X01027514
X01035303
X01043092
X01050882
X01058671
X0106646
X0107425
X01082039
X01089828
X01097618
X01105407
X01113196
X01120985
X01128775
X01136564
X01144353
X01152143
X01159932
X01167721
X01174496Y00886654
X01185974Y00895047
X01167721Y00794198
X01159932
X01152143
X01144353
X01136564
X01128775
X01120985
X01113196
X01105407
X01097618
X01089828
X01082039
X0107425
X0106646
X01058671
X01050882
X01043092
X01035303
X01027514
X01019724
X01011935
X01004146
X00996357
X00988567
X00980778
X00972989
X00965199
X0095741
X00949621
X00941831
X00934042
X00926253
X00918463
X00910674
X00902885
X00895095
X00887306
X00879517
X00871727
X00863938
X00856149
X00848359
X0084057
X00832781
X00824992
X00817202
X00809413
X00801624
X00793834
X01193121Y0083052
X01200911
X012087
X01216489
X01224279
X01232068
X01239857
X01247647
X01255436
X01263225
X01271014
X01278804
X01286593
X01294382
X01302172
X01309961
X0131775
X0132554
X01333329
X01341118
X01348908
X01356697
X01364486
X01372276
X01380065
X01387854
X01395644
X01403433
X01405Y0082
Y0081
X0142Y00795
X0143
X0144
X0145
X0146
Y0088
X0145
X0144
X0143
X0142
X01419096Y00895036
X01426886
X01434675
X01442464
X01450253
X0146Y0089
X01411307Y00895036
X01403518
X01395728
X01387939
X0138015
X0137236
X01364571
X01356782
X01348992
X01341203
X01333414
X01325624
X01317835
X01310046
X01302256
X01294467
X01286678
X01278888
X01271099
X0126331
X01255521
X01247731
X01239942
X01232153
X01224363
X01216574
X01208785
X01200995
X01193206
X01193121Y00846776
X01200911
X012087
X01216489
X01224279
X01232068
X01239857
X01247647
X01255436
X01263225
X01271014
X01278804
X01286593
X01294382
X01302172
X01309961
X0131775
X0132554
X01333329
X01341118
X01348908
X01356697
X01364486
X01372276
X01380065
X01387854
X01395644
X01403433
X0141Y00855
Y00865
T02
X0053558Y00838648
M30
