%TF.GenerationSoftware,Altium Limited,Altium Designer,23.5.1 (21)*%
G04 Layer_Physical_Order=1*
G04 Layer_Color=255*
%FSLAX45Y45*%
%MOMM*%
%TF.SameCoordinates,3CB42E93-166F-4660-8B23-097004C1D90D*%
%TF.FilePolarity,Positive*%
%TF.FileFunction,Copper,L1,Top,Signal*%
%TF.Part,Single*%
G01*
G75*
%TA.AperFunction,Conductor*%
%ADD10C,0.25400*%
%TA.AperFunction,ConnectorPad*%
%ADD11R,3.50000X1.50000*%
%TA.AperFunction,NonConductor*%
%ADD12C,0.25400*%
%TA.AperFunction,ViaPad*%
%ADD13C,0.60000*%
G36*
X5433663Y9023377D02*
X5504329Y9011371D01*
X5573206Y8991527D01*
X5639428Y8964097D01*
X5702163Y8929425D01*
X5749999Y8895483D01*
X5750486Y8896120D01*
X5757041Y8891740D01*
X5768746Y8889412D01*
X11663198D01*
X11663199Y8889411D01*
X11674905Y8891740D01*
X11684828Y8898371D01*
X11799270Y9012812D01*
X13092386D01*
X13092419Y9012819D01*
X13092456Y9012812D01*
X14546600Y9016150D01*
X14559300Y9016150D01*
X14571443Y9014806D01*
X14587616Y9012677D01*
X14614001Y9001747D01*
X14636659Y8984361D01*
X14654047Y8961703D01*
X14664975Y8935317D01*
X14667117Y8919047D01*
X14668449Y8907001D01*
D01*
X14668451Y8894303D01*
X14668449Y8894300D01*
Y7878482D01*
X14668451Y7878480D01*
X14668449Y7865782D01*
D01*
X14667117Y7853736D01*
X14664977Y7837466D01*
X14654047Y7811080D01*
X14636661Y7788422D01*
X14614001Y7771036D01*
X14587616Y7760106D01*
X14571443Y7757977D01*
X14559300Y7756632D01*
X14552950Y7755369D01*
X14546600Y7756632D01*
X11798511D01*
X11680596Y7870335D01*
X11675773Y7873432D01*
X11670984Y7876611D01*
X11670752Y7876656D01*
X11670554Y7876784D01*
X11664895Y7877803D01*
X11659271Y7878904D01*
X5757017Y7860877D01*
X5752105Y7864159D01*
X5740400Y7866488D01*
X5728695Y7864159D01*
X5723446Y7860652D01*
X5722779Y7861626D01*
X5702163Y7846999D01*
X5639428Y7812327D01*
X5573206Y7784896D01*
X5504329Y7765053D01*
X5433663Y7753046D01*
X5362097Y7749027D01*
X5290531Y7753046D01*
X5219865Y7765053D01*
X5150987Y7784896D01*
X5084765Y7812327D01*
X5022030Y7846999D01*
X4963572Y7888477D01*
X4910125Y7936240D01*
X4862362Y7989687D01*
X4820884Y8048145D01*
X4786211Y8110880D01*
X4758781Y8177103D01*
X4741012Y8238782D01*
X4749557Y8251482D01*
X4875151D01*
X4878407Y8235111D01*
X4893559Y8190475D01*
X4896524Y8181740D01*
X4896301Y8181538D01*
X4896300Y8181537D01*
X4896494Y8180561D01*
X4896495Y8180560D01*
X4897526Y8178382D01*
X4901906Y8170457D01*
X4929619Y8120314D01*
X4970077Y8063294D01*
X5016665Y8011162D01*
X5032816Y7996728D01*
X5040918Y7989280D01*
X5041281Y7988737D01*
X5041282Y7988736D01*
X5043752Y7985807D01*
X5045593Y7984193D01*
X5054141Y7978481D01*
X5101791Y7946643D01*
X5162410Y7916749D01*
X5226412Y7895023D01*
X5292702Y7881837D01*
X5360147Y7877417D01*
X5427591Y7881837D01*
X5493881Y7895023D01*
X5557883Y7916749D01*
X5618502Y7946643D01*
X5674700Y7984193D01*
X5725516Y8028758D01*
X5770081Y8079574D01*
X5807631Y8135772D01*
X5837525Y8196391D01*
X5859251Y8260393D01*
X5862613Y8277295D01*
X5864877Y8280683D01*
X5866251Y8287589D01*
X5866362Y8296144D01*
X5867024Y8299509D01*
X5865651Y8306415D01*
X5861739Y8312269D01*
X5855884Y8316181D01*
X5848978Y8317555D01*
X5848967Y8317553D01*
X5848204Y8317705D01*
X5841297Y8316331D01*
X5835443Y8312419D01*
X5831531Y8306565D01*
X5830826Y8303022D01*
X5830360Y8303112D01*
X5823754Y8269904D01*
X5803574Y8210454D01*
X5775806Y8154146D01*
X5740926Y8101945D01*
X5699531Y8054743D01*
X5652329Y8013348D01*
X5600127Y7978468D01*
X5543820Y7950700D01*
X5484370Y7930520D01*
X5422794Y7918271D01*
X5360147Y7914165D01*
X5297499Y7918271D01*
X5235923Y7930520D01*
X5176473Y7950700D01*
X5120166Y7978468D01*
X5076746Y8007480D01*
X5075044Y8008806D01*
X5066676Y8015606D01*
X5066676Y8015606D01*
X5042399Y8036896D01*
X4991767Y8094631D01*
X4949104Y8158481D01*
X4936521Y8183997D01*
X4931099Y8195050D01*
Y8195050D01*
X4926832Y8206537D01*
X4915886Y8238782D01*
X4923494Y8251482D01*
X5026395D01*
X5026808Y8250210D01*
X5052177Y8200422D01*
X5085021Y8155215D01*
X5124533Y8115703D01*
X5169739Y8082859D01*
X5219527Y8057491D01*
X5272670Y8040223D01*
X5327861Y8031482D01*
X5383739D01*
X5438929Y8040223D01*
X5492073Y8057491D01*
X5541860Y8082859D01*
X5587067Y8115703D01*
X5626579Y8155215D01*
X5659423Y8200422D01*
X5684791Y8250210D01*
X5702059Y8303353D01*
X5710800Y8358543D01*
Y8414422D01*
X5702059Y8469612D01*
X5684791Y8522755D01*
X5659423Y8572543D01*
X5626579Y8617749D01*
X5587067Y8657261D01*
X5541860Y8690106D01*
X5492073Y8715474D01*
X5438929Y8732741D01*
X5383739Y8741482D01*
X5327861D01*
X5272670Y8732741D01*
X5219527Y8715474D01*
X5169739Y8690106D01*
X5124533Y8657261D01*
X5085021Y8617749D01*
X5052177Y8572543D01*
X5026808Y8522755D01*
X5026395Y8521482D01*
X4928650D01*
X4921252Y8531805D01*
X4935472Y8573697D01*
X4965150Y8633877D01*
X5002429Y8689669D01*
X5019839Y8709521D01*
X5027564Y8718330D01*
X5036622Y8726559D01*
X5062186Y8748978D01*
X5114888Y8784192D01*
X5171735Y8812226D01*
X5231755Y8832600D01*
X5293920Y8844965D01*
X5344757Y8848297D01*
X5357168Y8848996D01*
X5369582Y8848307D01*
X5421028Y8844935D01*
X5483796Y8832450D01*
X5544398Y8811878D01*
X5601795Y8783573D01*
X5655007Y8748018D01*
X5703123Y8705821D01*
X5745320Y8657705D01*
X5780875Y8604493D01*
X5809181Y8547095D01*
X5829752Y8486494D01*
X5842237Y8423726D01*
X5845026Y8381177D01*
X5845971Y8381218D01*
X5847189Y8375094D01*
X5851101Y8369239D01*
X5856956Y8365327D01*
X5863862Y8363953D01*
X14158299D01*
Y8302000D01*
X14518300D01*
Y8462000D01*
X14158299D01*
Y8400047D01*
X5880538D01*
X5878672Y8428522D01*
X5865249Y8496005D01*
X5843132Y8561158D01*
X5812701Y8622867D01*
X5774475Y8680076D01*
X5729109Y8731806D01*
X5677379Y8777172D01*
X5620170Y8815398D01*
X5558461Y8845830D01*
X5493308Y8867946D01*
X5425825Y8881369D01*
X5357168Y8885869D01*
Y8885859D01*
X5289124Y8881399D01*
X5222243Y8868096D01*
X5157672Y8846177D01*
X5096514Y8816017D01*
X5039815Y8778133D01*
X5009278Y8751352D01*
X5003372Y8746174D01*
X5002731Y8745780D01*
X5002464Y8745846D01*
X5001215Y8745011D01*
X4994646Y8736410D01*
X4991287Y8732580D01*
X4973274Y8712040D01*
X4933324Y8652252D01*
X4901521Y8587760D01*
X4879022Y8521482D01*
X4746799D01*
X4740015Y8534182D01*
X4758781Y8599321D01*
X4786211Y8665544D01*
X4820884Y8728278D01*
X4862362Y8786737D01*
X4910125Y8840183D01*
X4963572Y8887946D01*
X5022030Y8929425D01*
X5084765Y8964097D01*
X5150987Y8991527D01*
X5219865Y9011371D01*
X5290531Y9023377D01*
X5362097Y9027396D01*
X5433663Y9023377D01*
D02*
G37*
D10*
X5357168Y8867043D02*
G03*
X5014992Y8732538I0J-502493D01*
G01*
X5014944Y8732494D02*
G03*
X5013429Y8730952I17345J-18556D01*
G01*
X5863862Y8382000D02*
G03*
X5357168Y8867043I-506695J-22135D01*
G01*
X4914140Y8186500D02*
G03*
X5054042Y8001498I543377J265514D01*
G01*
X4913416Y8188184D02*
G03*
X4914103Y8186580I23678J9195D01*
G01*
X5013429Y8730952D02*
G03*
X4913416Y8188184I395969J-353561D01*
G01*
X5055176Y8000551D02*
G03*
X5848978Y8299508I304970J393576D01*
G01*
X5054042Y8001498D02*
G03*
X5055177Y8000552I16830J19024D01*
G01*
X5014944Y8732494D02*
X5014992Y8732538D01*
X5863862Y8382000D02*
X5863863D01*
X14338300D01*
X4914103Y8186580D02*
X4914140Y8186500D01*
D11*
X14338300Y8382000D02*
D03*
Y8112000D02*
D03*
Y8652000D02*
D03*
D12*
X5848204Y8287589D02*
Y8299658D01*
D13*
X14600000Y7950000D02*
D03*
Y8450000D02*
D03*
Y8350000D02*
D03*
Y8650000D02*
D03*
Y8550000D02*
D03*
X14050000Y8200000D02*
D03*
X14500000Y7950000D02*
D03*
X14400000D02*
D03*
X14300000D02*
D03*
X14200000D02*
D03*
X14050000Y8100000D02*
D03*
X14100000Y8550000D02*
D03*
Y8650000D02*
D03*
X14500000Y8800000D02*
D03*
X14400000D02*
D03*
X14300000D02*
D03*
X14200000D02*
D03*
X5848204Y8299658D02*
D03*
X5115560Y8899562D02*
D03*
X4886960Y8709062D02*
D03*
X11859737Y8950470D02*
D03*
X5755640Y8335682D02*
D03*
Y8409342D02*
D03*
X5745480Y8483002D02*
D03*
X5722620Y8554122D02*
D03*
X5687060Y8617622D02*
D03*
X5580380Y8721762D02*
D03*
X5514340Y8759862D02*
D03*
X5443220Y8782722D02*
D03*
X5367020Y8787802D02*
D03*
X5290820Y8780182D02*
D03*
X5214620Y8762402D02*
D03*
X5146040Y8729382D02*
D03*
X4991100Y8208682D02*
D03*
X5077460Y8089302D02*
D03*
X5138420Y8043582D02*
D03*
X5204460Y8008022D02*
D03*
X5275580Y7982622D02*
D03*
X5349240Y7972462D02*
D03*
X5425440Y7977542D02*
D03*
X5499100Y7995322D02*
D03*
X5720080Y8188362D02*
D03*
X5566773Y8025535D02*
D03*
X5626597Y8071251D02*
D03*
X5087620Y8683662D02*
D03*
X4996180Y8566822D02*
D03*
X6089226Y8467762D02*
D03*
X6322906D02*
D03*
X6556585D02*
D03*
X6712372D02*
D03*
X6167119D02*
D03*
X6011333D02*
D03*
X6634478D02*
D03*
X6790265D02*
D03*
X6245013D02*
D03*
X6478692D02*
D03*
X6400799D02*
D03*
X6868158D02*
D03*
X5933440D02*
D03*
X7802876D02*
D03*
X7335517D02*
D03*
X7413410D02*
D03*
X7179731D02*
D03*
X7724983D02*
D03*
X7569196D02*
D03*
X6946051D02*
D03*
X7101837D02*
D03*
X7647090D02*
D03*
X7491303D02*
D03*
X7257624D02*
D03*
X7023944D02*
D03*
X8737594D02*
D03*
X8270235D02*
D03*
X8348128D02*
D03*
X8114449D02*
D03*
X8659701D02*
D03*
X8503914D02*
D03*
X7880769D02*
D03*
X8036555D02*
D03*
X8581808D02*
D03*
X8426021D02*
D03*
X8192342D02*
D03*
X7958662D02*
D03*
X9204953D02*
D03*
X9282846D02*
D03*
X9049167D02*
D03*
X9594419D02*
D03*
X9438632D02*
D03*
X8815487D02*
D03*
X8971273D02*
D03*
X9516526D02*
D03*
X9360739D02*
D03*
X9127060D02*
D03*
X8893380D02*
D03*
X9672312D02*
D03*
X10139671D02*
D03*
X10217564D02*
D03*
X9983885D02*
D03*
X10529137D02*
D03*
X10373350D02*
D03*
X9750205D02*
D03*
X9905991D02*
D03*
X10451244D02*
D03*
X10295457D02*
D03*
X10061778D02*
D03*
X9828098D02*
D03*
X10607030D02*
D03*
X11541748D02*
D03*
X11074389D02*
D03*
X11152282D02*
D03*
X10918602D02*
D03*
X11463855D02*
D03*
X11308068D02*
D03*
X10684923D02*
D03*
X10840709D02*
D03*
X11385961D02*
D03*
X11230175D02*
D03*
X10996496D02*
D03*
X10762816D02*
D03*
X12009107D02*
D03*
X12087000D02*
D03*
X11853320D02*
D03*
X11619641D02*
D03*
X11775427D02*
D03*
X12164893D02*
D03*
X11931214D02*
D03*
X11697534D02*
D03*
Y8305201D02*
D03*
X11931214D02*
D03*
X12164893D02*
D03*
X11775427D02*
D03*
X11619641D02*
D03*
X11853320D02*
D03*
X12087000D02*
D03*
X12009107D02*
D03*
X11541748D02*
D03*
X10762816D02*
D03*
X10996496D02*
D03*
X11230175D02*
D03*
X11385961D02*
D03*
X10840709D02*
D03*
X10684923D02*
D03*
X11308068D02*
D03*
X11463855D02*
D03*
X10918602D02*
D03*
X11152282D02*
D03*
X11074389D02*
D03*
X10607030D02*
D03*
X9828098D02*
D03*
X10061778D02*
D03*
X10295457D02*
D03*
X10451244D02*
D03*
X9905991D02*
D03*
X9750205D02*
D03*
X10373350D02*
D03*
X10529137D02*
D03*
X9983885D02*
D03*
X10217564D02*
D03*
X10139671D02*
D03*
X8893380D02*
D03*
X9127060D02*
D03*
X9360739D02*
D03*
X9516526D02*
D03*
X8971273D02*
D03*
X8815487D02*
D03*
X9438632D02*
D03*
X9594419D02*
D03*
X9049167D02*
D03*
X9282846D02*
D03*
X9204953D02*
D03*
X9672312D02*
D03*
X8737594D02*
D03*
X7958662D02*
D03*
X8192342D02*
D03*
X8426021D02*
D03*
X8581808D02*
D03*
X8036555D02*
D03*
X7880769D02*
D03*
X8503914D02*
D03*
X8659701D02*
D03*
X8114449D02*
D03*
X8348128D02*
D03*
X8270235D02*
D03*
X7023944D02*
D03*
X7257624D02*
D03*
X7491303D02*
D03*
X7647090D02*
D03*
X7101837D02*
D03*
X6946051D02*
D03*
X7569196D02*
D03*
X7724983D02*
D03*
X7179731D02*
D03*
X7413410D02*
D03*
X7335517D02*
D03*
X7802876D02*
D03*
X6868158D02*
D03*
X6400799D02*
D03*
X6478692D02*
D03*
X6245013D02*
D03*
X6790265D02*
D03*
X6634478D02*
D03*
X6011333D02*
D03*
X6167119D02*
D03*
X6712372D02*
D03*
X6556585D02*
D03*
X6322906D02*
D03*
X6089226D02*
D03*
X5915660Y8541422D02*
D03*
X5890260Y8610002D02*
D03*
X5854700Y8678582D02*
D03*
X5760720Y7972461D02*
D03*
X5854700Y8094381D02*
D03*
X5890260Y8162961D02*
D03*
X5915660Y8231541D02*
D03*
X5760720Y8800502D02*
D03*
X4820920Y8569362D02*
D03*
X4848860Y8640482D02*
D03*
X4991100Y8818282D02*
D03*
X5186680Y8924962D02*
D03*
X5260340Y8942742D02*
D03*
X5339080Y8950362D02*
D03*
X5416334Y8948186D02*
D03*
X5489373Y8930901D02*
D03*
X5560060Y8909722D02*
D03*
X5628640Y8881782D02*
D03*
X5692222Y8843543D02*
D03*
X4820920Y8203602D02*
D03*
X4848860Y8132482D02*
D03*
X4937760Y8008022D02*
D03*
X5049520Y7911502D02*
D03*
X5115560Y7873402D02*
D03*
X5186680Y7848002D02*
D03*
X5260340Y7830222D02*
D03*
X5339080Y7822602D02*
D03*
X5416334Y7824779D02*
D03*
X5489373Y7842063D02*
D03*
X5560060Y7863242D02*
D03*
X5628640Y7891182D02*
D03*
X5692222Y7929422D02*
D03*
X11521428Y8830982D02*
D03*
X11599321D02*
D03*
X11443535D02*
D03*
X11677214D02*
D03*
X11365641D02*
D03*
X10586710D02*
D03*
X10820389D02*
D03*
X11054069D02*
D03*
X11209855D02*
D03*
X10664603D02*
D03*
X10508817D02*
D03*
X11131962D02*
D03*
X11287748D02*
D03*
X10742496D02*
D03*
X10976176D02*
D03*
X10898282D02*
D03*
X9651992D02*
D03*
X9885671D02*
D03*
X10119351D02*
D03*
X10275137D02*
D03*
X9729885D02*
D03*
X9574099D02*
D03*
X10197244D02*
D03*
X10353030D02*
D03*
X9807778D02*
D03*
X10041458D02*
D03*
X9963565D02*
D03*
X10430924D02*
D03*
X9496206D02*
D03*
X8717274D02*
D03*
X8950953D02*
D03*
X9184633D02*
D03*
X9340419D02*
D03*
X8795167D02*
D03*
X8639381D02*
D03*
X9262526D02*
D03*
X9418312D02*
D03*
X8873060D02*
D03*
X9106740D02*
D03*
X9028847D02*
D03*
X7782556D02*
D03*
X8016235D02*
D03*
X8249915D02*
D03*
X8405701D02*
D03*
X7860449D02*
D03*
X7704663D02*
D03*
X8327808D02*
D03*
X8483594D02*
D03*
X7938342D02*
D03*
X8172022D02*
D03*
X8094129D02*
D03*
X8561488D02*
D03*
X6847838D02*
D03*
X7081517D02*
D03*
X7315197D02*
D03*
X7470983D02*
D03*
X6925731D02*
D03*
X6769945D02*
D03*
X7393090D02*
D03*
X7548876D02*
D03*
X7003624D02*
D03*
X7237304D02*
D03*
X7159411D02*
D03*
X7626770D02*
D03*
X6692052D02*
D03*
X6224693D02*
D03*
X6302586D02*
D03*
X6068906D02*
D03*
X6614158D02*
D03*
X6458372D02*
D03*
X5991013D02*
D03*
X6536265D02*
D03*
X6380479D02*
D03*
X6146799D02*
D03*
X5913120D02*
D03*
Y7941982D02*
D03*
X6146799D02*
D03*
X6380479D02*
D03*
X6536265D02*
D03*
X5991013D02*
D03*
X5835227D02*
D03*
X6458372D02*
D03*
X6614158D02*
D03*
X6068906D02*
D03*
X6302586D02*
D03*
X6224693D02*
D03*
X6692052D02*
D03*
X7626770D02*
D03*
X7159411D02*
D03*
X7237304D02*
D03*
X7003624D02*
D03*
X7548876D02*
D03*
X7393090D02*
D03*
X6769945D02*
D03*
X6925731D02*
D03*
X7470983D02*
D03*
X7315197D02*
D03*
X7081517D02*
D03*
X6847838D02*
D03*
X8561488D02*
D03*
X8094129D02*
D03*
X8172022D02*
D03*
X7938342D02*
D03*
X8483594D02*
D03*
X8327808D02*
D03*
X7704663D02*
D03*
X7860449D02*
D03*
X8405701D02*
D03*
X8249915D02*
D03*
X8016235D02*
D03*
X7782556D02*
D03*
X9496206D02*
D03*
X9028847D02*
D03*
X9106740D02*
D03*
X8873060D02*
D03*
X9418312D02*
D03*
X9262526D02*
D03*
X8639381D02*
D03*
X8795167D02*
D03*
X9340419D02*
D03*
X9184633D02*
D03*
X8950953D02*
D03*
X8717274D02*
D03*
X10430924D02*
D03*
X9963565D02*
D03*
X10041458D02*
D03*
X9807778D02*
D03*
X10353030D02*
D03*
X10197244D02*
D03*
X9574099D02*
D03*
X9729885D02*
D03*
X10275137D02*
D03*
X10119351D02*
D03*
X9885671D02*
D03*
X9651992D02*
D03*
X11365641D02*
D03*
X10898282D02*
D03*
X10976176D02*
D03*
X10742496D02*
D03*
X11287748D02*
D03*
X11131962D02*
D03*
X10508817D02*
D03*
X10664603D02*
D03*
X11209855D02*
D03*
X11054069D02*
D03*
X10820389D02*
D03*
X10586710D02*
D03*
X12399419Y7822602D02*
D03*
X11932060D02*
D03*
X12009954D02*
D03*
X11677214Y7941982D02*
D03*
X12321526Y7822602D02*
D03*
X12165740D02*
D03*
X11443535Y7941982D02*
D03*
X11599321D02*
D03*
X12243633Y7822602D02*
D03*
X12087847D02*
D03*
X11521428Y7941982D02*
D03*
X12633099Y7822602D02*
D03*
X12477313D02*
D03*
X12555206D02*
D03*
X13334137D02*
D03*
X13256244D02*
D03*
X12866779D02*
D03*
X13022565D02*
D03*
X12944672D02*
D03*
X13100458D02*
D03*
X12788885D02*
D03*
X12710992D02*
D03*
X13178351D02*
D03*
X14113069D02*
D03*
X14035176D02*
D03*
X14190962D02*
D03*
X13412032D02*
D03*
X13645711D02*
D03*
X13801495D02*
D03*
X13723602D02*
D03*
X13879390D02*
D03*
X13567818D02*
D03*
X13489925D02*
D03*
X13957283D02*
D03*
X14424641D02*
D03*
X14502534D02*
D03*
X14346748D02*
D03*
X14268855D02*
D03*
Y8950362D02*
D03*
X14346748D02*
D03*
X14502534D02*
D03*
X14424641D02*
D03*
X14190962D02*
D03*
X13957283D02*
D03*
X13489925D02*
D03*
X13567818D02*
D03*
X13879390D02*
D03*
X13723602D02*
D03*
X13801495D02*
D03*
X13645711D02*
D03*
X13412032D02*
D03*
X14035176D02*
D03*
X14113069D02*
D03*
X13178351D02*
D03*
X12710992D02*
D03*
X12788885D02*
D03*
X13100458D02*
D03*
X12944672D02*
D03*
X13022565D02*
D03*
X12866779D02*
D03*
X12633099D02*
D03*
X13256244D02*
D03*
X13334137D02*
D03*
X12555206D02*
D03*
X12477313D02*
D03*
X12087847D02*
D03*
X12243633D02*
D03*
X12165740D02*
D03*
X12321526D02*
D03*
X12009954D02*
D03*
X11932060D02*
D03*
X12399419D02*
D03*
X11744960Y8866542D02*
D03*
X11742420Y7906422D02*
D03*
X11793220Y7858162D02*
D03*
X14600000Y8250000D02*
D03*
Y8050000D02*
D03*
Y8150000D02*
D03*
Y8800000D02*
D03*
Y8900000D02*
D03*
X12554359Y8305201D02*
D03*
X12632252D02*
D03*
X12398573D02*
D03*
X12320679D02*
D03*
X12710145D02*
D03*
X12476466D02*
D03*
X12242786D02*
D03*
Y8467762D02*
D03*
X12476466D02*
D03*
X12710145D02*
D03*
X12320679D02*
D03*
X12398573D02*
D03*
X12632252D02*
D03*
X12554359D02*
D03*
X13099611Y8305201D02*
D03*
X13177504D02*
D03*
X12943825D02*
D03*
X12865932D02*
D03*
X13255397D02*
D03*
X13021718D02*
D03*
X12788038D02*
D03*
Y8467762D02*
D03*
X13021718D02*
D03*
X13255397D02*
D03*
X12865932D02*
D03*
X12943825D02*
D03*
X13177504D02*
D03*
X13099611D02*
D03*
X13644862Y8305201D02*
D03*
X13722755D02*
D03*
X13489078D02*
D03*
X13411185D02*
D03*
X13800650D02*
D03*
X13566969D02*
D03*
X13333292D02*
D03*
Y8467762D02*
D03*
X13566969D02*
D03*
X13800650D02*
D03*
X13411185D02*
D03*
X13489078D02*
D03*
X13722755D02*
D03*
X13644862D02*
D03*
X13878543D02*
D03*
X13956436D02*
D03*
X14034329D02*
D03*
Y8305201D02*
D03*
X13956436D02*
D03*
X13878543D02*
D03*
%TF.MD5,0ad9e2dd500ab22020cf9427643ab21c*%
M02*
