%TF.GenerationSoftware,Altium Limited,Altium Designer,23.5.1 (21)*%
G04 Layer_Physical_Order=1*
G04 Layer_Color=255*
%FSLAX45Y45*%
%MOMM*%
%TF.SameCoordinates,559C649B-2B64-4ED9-80DE-08B0DC2EE5C3*%
%TF.FilePolarity,Positive*%
%TF.FileFunction,Copper,L1,Top,Signal*%
%TF.Part,Single*%
G01*
G75*
%TA.AperFunction,ConnectorPad*%
%ADD10R,3.50000X1.50000*%
%TA.AperFunction,Conductor*%
%ADD11C,0.29337*%
%TA.AperFunction,ViaPad*%
%ADD12C,0.70000*%
D10*
X6019800Y8573716D02*
D03*
Y9113716D02*
D03*
Y8843716D02*
D03*
D11*
X6019801D02*
X14717664D01*
X14717664D02*
X15476434D01*
X6019800Y8813800D02*
X6019801Y8813801D01*
D12*
X8863742Y9262817D02*
D03*
X6272948Y8941363D02*
D03*
X6428734D02*
D03*
X6740307D02*
D03*
X6584520D02*
D03*
X6896093D02*
D03*
X7519238D02*
D03*
X7051879D02*
D03*
X7363452D02*
D03*
X7207666D02*
D03*
X7986597D02*
D03*
X7830811D02*
D03*
X8142384D02*
D03*
X7675025D02*
D03*
X14062263D02*
D03*
X14218051D02*
D03*
X14373837D02*
D03*
X13750693D02*
D03*
X13594905D02*
D03*
X13906477D02*
D03*
X12971761D02*
D03*
X12660187D02*
D03*
X12815974D02*
D03*
X13439119D02*
D03*
X13283333D02*
D03*
X13127547D02*
D03*
X12037042D02*
D03*
X11725469D02*
D03*
X11881256D02*
D03*
X12504401D02*
D03*
X12348615D02*
D03*
X12192828D02*
D03*
X11102324D02*
D03*
X10790751D02*
D03*
X10946538D02*
D03*
X11569683D02*
D03*
X11413897D02*
D03*
X11258110D02*
D03*
X10167606D02*
D03*
X9856033D02*
D03*
X10011820D02*
D03*
X10634965D02*
D03*
X10479179D02*
D03*
X10323392D02*
D03*
X9232888D02*
D03*
X8921315D02*
D03*
X9077102D02*
D03*
X9700247D02*
D03*
X9544461D02*
D03*
X9388674D02*
D03*
X8298170D02*
D03*
X8765529D02*
D03*
X8609743D02*
D03*
X8453956D02*
D03*
Y8737037D02*
D03*
X8609743D02*
D03*
X8765529D02*
D03*
X8298170D02*
D03*
X9388674D02*
D03*
X9544461D02*
D03*
X9700247D02*
D03*
X9077102D02*
D03*
X8921315D02*
D03*
X9232888D02*
D03*
X10323392D02*
D03*
X10479179D02*
D03*
X10634965D02*
D03*
X10011820D02*
D03*
X9856033D02*
D03*
X10167606D02*
D03*
X11258110D02*
D03*
X11413897D02*
D03*
X11569683D02*
D03*
X10946538D02*
D03*
X10790751D02*
D03*
X11102324D02*
D03*
X12192828D02*
D03*
X12348615D02*
D03*
X12504401D02*
D03*
X11881256D02*
D03*
X11725469D02*
D03*
X12037042D02*
D03*
X13127547D02*
D03*
X13283333D02*
D03*
X13439119D02*
D03*
X12815974D02*
D03*
X12660187D02*
D03*
X12971761D02*
D03*
X13906477D02*
D03*
X13594905D02*
D03*
X13750693D02*
D03*
X14373837D02*
D03*
X14218051D02*
D03*
X14062263D02*
D03*
X8375216Y8254437D02*
D03*
X8063644D02*
D03*
X8219430D02*
D03*
X8534400Y8255000D02*
D03*
X7907857Y8254437D02*
D03*
X14004691Y8373817D02*
D03*
X13848904D02*
D03*
X14316264D02*
D03*
X14160477D02*
D03*
X13693118D02*
D03*
X12758400D02*
D03*
X13225758D02*
D03*
X13381546D02*
D03*
X12914188D02*
D03*
X13069974D02*
D03*
X13537332D02*
D03*
X11823682D02*
D03*
X12291041D02*
D03*
X12446828D02*
D03*
X11979469D02*
D03*
X12135255D02*
D03*
X12602614D02*
D03*
X11356323D02*
D03*
X11512110D02*
D03*
X11044751D02*
D03*
X11200537D02*
D03*
X11667896D02*
D03*
X10888965D02*
D03*
X9954247D02*
D03*
X10421606D02*
D03*
X10577392D02*
D03*
X10110033D02*
D03*
X10265819D02*
D03*
X10733178D02*
D03*
X9486888D02*
D03*
X9642674D02*
D03*
X9175315D02*
D03*
X9331101D02*
D03*
X9798460D02*
D03*
X9019529D02*
D03*
X8863742D02*
D03*
X8699500Y8369300D02*
D03*
X8375216Y9382197D02*
D03*
X8063644D02*
D03*
X8219430D02*
D03*
X8547100Y9372600D02*
D03*
X7907857Y9382197D02*
D03*
X14004691Y9262817D02*
D03*
X13848904D02*
D03*
X14316264D02*
D03*
X14160477D02*
D03*
X13693118D02*
D03*
X12758400D02*
D03*
X13225758D02*
D03*
X13381546D02*
D03*
X12914188D02*
D03*
X13069974D02*
D03*
X13537332D02*
D03*
X11823682D02*
D03*
X12291041D02*
D03*
X12446828D02*
D03*
X11979469D02*
D03*
X12135255D02*
D03*
X12602614D02*
D03*
X11356323D02*
D03*
X11512110D02*
D03*
X11044751D02*
D03*
X11200537D02*
D03*
X11667896D02*
D03*
X10888965D02*
D03*
X9954247D02*
D03*
X10421606D02*
D03*
X10577392D02*
D03*
X10110033D02*
D03*
X10265819D02*
D03*
X10733178D02*
D03*
X9486888D02*
D03*
X9642674D02*
D03*
X9175315D02*
D03*
X9331101D02*
D03*
X9798460D02*
D03*
X9019529D02*
D03*
X8699500Y9271000D02*
D03*
X5777631Y8487271D02*
D03*
Y8331484D02*
D03*
Y9305151D02*
D03*
Y9149364D02*
D03*
X5882636Y8254438D02*
D03*
X6038423D02*
D03*
Y9382198D02*
D03*
X5882636D02*
D03*
X6194209D02*
D03*
X6973141D02*
D03*
X6505782D02*
D03*
X6349995D02*
D03*
X6817354D02*
D03*
X6661568D02*
D03*
X7284713D02*
D03*
X7128927D02*
D03*
X6194209Y8254438D02*
D03*
X6973141D02*
D03*
X6505782D02*
D03*
X6349995D02*
D03*
X6817354D02*
D03*
X6661568D02*
D03*
X7284713D02*
D03*
X7128927D02*
D03*
X7752072D02*
D03*
X7596286D02*
D03*
X7907859D02*
D03*
X7440500D02*
D03*
X7752072Y9382198D02*
D03*
X7596286D02*
D03*
X7907859D02*
D03*
X7440500D02*
D03*
X7675025Y8737037D02*
D03*
X8142384D02*
D03*
X7830811D02*
D03*
X7986597D02*
D03*
X7207666D02*
D03*
X7363452D02*
D03*
X7051879D02*
D03*
X7519238D02*
D03*
X6896093D02*
D03*
X6584520D02*
D03*
X6740307D02*
D03*
X6428734D02*
D03*
X6272948D02*
D03*
%TF.MD5,f4fd45474673fa2d9ea0f0d8433a1c1d*%
M02*
