M48
;Layer_Color=9474304
;FILE_FORMAT=4:4
METRIC,LZ
;TYPE=PLATED
T1F00S00C0.3000
%
T01
X00588264Y00825444
X00603842
X00619421
X00635
X00650578
X00666157
X00681735
X00697314
X00712893
X00728471
X0074405
X00759629
X00775207
X00790786Y00825444
X00783081Y00873704
X00767503
X00751924
X00736345
X00720767
X00705188
X00689609
X00674031
X00658452
Y00894136
X00674031
X00689609
X00705188
X00720767
X00736345
X00751924
X00767503
X00783081
X00790786Y0093822
X00775207Y0093822
X00759629
X0074405
X00728471
X00712893
X00697314
X00681735
X00666157
X00650578
X0065024Y0092456
Y0090932
X00635Y0093822
X00619421
X00603842
X00588264
X0065024Y0085852
Y0084328
X00806364Y00825444
X00821943
X00837522
X0085344Y008255
X0086995Y0083693
X00886374Y00837382
X00901953
X00917532
X0093311
X00948689
X00964267
X00979846
X00995425
X01011003
X01026582
X01042161
X01057739
X01073318
X01088896
X01104475
X01120054
X01135632
X01151211
X0116679
X01182368
X01188126Y00873704
X01172547
X01156968
X0114139
X01125811
X01110232
X01094654
X01079075
X01063496
X01047918
X01032339
X01016761
X01001182
X00985603
X00970025
X00954446
X00938867
X00923289
X0090771
X00892132
X00876553
X00860974
X00845396
X00829817
X00814238
X0079866
Y00894136
X00814238
X00829817
X00845396
X00860974
X00876553
X00892132
X0090771
X00923289
X00938867
X00954446
X00970025
X00985603
X01001182
X01016761
X01032339
X01047918
X01063496
X01079075
X01094654
X01110232
X01125811
X0114139
X01156968
X01172547
X01188126
X01182368Y00926282
X0116679
X01151211
X01135632
X01120054
X01104475
X01088896
X01073318
X01057739
X01042161
X01026582
X01011003
X00995425
X00979846
X00964267
X00948689
X0093311
X00917532
X00901953
X00886374
X0086995Y009271
X0085471Y0093726
X00837522Y0093822
X00821943
X00806364
X01197947Y00926282
X01213525
X01229104
X01244683
X01260261
X0127584
X01291419
X01306997
X01322576
X01338155
X01353733
X01369312
X0138489
X01400469
X01416048
X01431626
X01437384Y00894136
X01421805
X01406226
X01390648
X01375069
X01359491
X01343912
X01328333
X01312755
X01297176
X01281597
X01266019
X0125044
X01234862
X01219283
X01203704
Y00873704
X01219283
X01234862
X0125044
X01266019
X01281597
X01297176
X01312755
X01328333
X01343912
X01359491
X01375069
X01390648
X01406226
X01421805
X01437384
X01431626Y00837382
X01416048
X01400469
X0138489
X01369312
X01353733
X01338155
X01322576
X01306997
X01291419
X0127584
X01260261
X01244683
X01229104
X01213525
X01197947
M30
