M48
;Layer_Color=9474304
;FILE_FORMAT=4:4
METRIC,LZ
;TYPE=PLATED
T1F00S00C0.3000
T2F00S00C0.7112
T3F00S00C1.1000
T4F00S00C4.0000
%
T01
X02164Y01266
X02182
X02207Y01284
X02157Y01315
X0224127Y01357582
X02256813Y01343815
X02303Y01334
X02474899Y01171208
T02
X0185Y012
X0259Y0113
T03
X018645Y012832
Y01334
X025795
Y012832
T04
X0295Y0005
X0005
X001Y0125
X029
X0295Y0245
X0005
M30
